<svg width="96" height="96" viewBox="0 0 96 96" fill="none" xmlns="http://www.w3.org/2000/svg">
<path d="M41.2447 36.2318V23.9082C41.2447 23.1784 40.9548 22.4784 40.4387 21.9623C39.9226 21.4462 39.2226 21.1562 38.4927 21.1562C37.7628 21.1562 37.0629 21.4462 36.5468 21.9623C36.0307 22.4784 35.7407 23.1784 35.7407 23.9082V33.6871" stroke="#121212" stroke-linecap="round" stroke-linejoin="round"/>
<path d="M46.7496 36.1263V21.7657C46.7496 21.0358 46.4597 20.3358 45.9436 19.8197C45.4275 19.3036 44.7275 19.0137 43.9976 19.0137C43.2677 19.0137 42.5678 19.3036 42.0517 19.8197C41.5356 20.3358 41.2456 21.0358 41.2456 21.7657V36.2329" stroke="#121212" stroke-linecap="round" stroke-linejoin="round"/>
<path d="M52.254 36.1255V24.3379C52.254 23.6081 51.9641 22.9081 51.448 22.392C50.9319 21.8759 50.2319 21.5859 49.502 21.5859C48.7776 21.6033 48.0877 21.8988 47.5753 22.4112C47.0629 22.9236 46.7674 23.6135 46.75 24.3379V36.1255" stroke="#121212" stroke-linecap="round" stroke-linejoin="round"/>
<path d="M52.2539 36.6254V27.5528C52.2539 26.8229 52.5438 26.1229 53.0599 25.6068C53.576 25.0907 54.276 24.8008 55.0059 24.8008C55.7358 24.8008 56.4358 25.0907 56.9519 25.6068C57.468 26.1229 57.7579 26.8229 57.7579 27.5528V60.0603" stroke="#121212" stroke-linecap="round" stroke-linejoin="round"/>
<path d="M37.7422 43.166H40.3895C41.9823 43.166 43.5098 43.7987 44.636 44.925C45.7623 46.0512 46.395 47.5787 46.395 49.1715V51.1734" stroke="#121212" stroke-linecap="round" stroke-linejoin="round"/>
<path d="M58.7601 63.5639V60.7005C58.7601 60.5308 58.6927 60.368 58.5727 60.248C58.4527 60.128 58.2899 60.0605 58.1201 60.0605H40.3841C40.2144 60.0605 40.0516 60.128 39.9316 60.248C39.8116 60.368 39.7441 60.5308 39.7441 60.7005V63.5639" stroke="#121212" stroke-linecap="round" stroke-linejoin="round"/>
<path d="M61.2622 89.8502V65.5661C61.2622 65.3032 61.2105 65.0429 61.1099 64.8C61.0093 64.5572 60.8619 64.3365 60.676 64.1506C60.4901 63.9647 60.2695 63.8173 60.0266 63.7167C59.7837 63.6162 59.5234 63.5644 59.2606 63.5645H39.2426C38.9798 63.5644 38.7194 63.6162 38.4766 63.7167C38.2337 63.8173 38.013 63.9647 37.8271 64.1506C37.6412 64.3365 37.4937 64.5571 37.3931 64.8C37.2925 65.0429 37.2407 65.3032 37.2407 65.5661V89.8502" fill="#103F54"/>
<path d="M40.8142 60.0605V56.552L33.4078 49.1462C33.0361 48.7745 32.7412 48.3332 32.5401 47.8475C32.3389 47.3618 32.2353 46.8412 32.2354 46.3155V36.336C32.2354 35.6061 32.5253 34.9061 33.0414 34.39C33.5575 33.8739 34.2575 33.584 34.9874 33.584C35.7172 33.584 36.4172 33.8739 36.9333 34.39C37.4494 34.9061 37.7394 35.6061 37.7394 36.336V43.1673" stroke="#121212" stroke-linecap="round" stroke-linejoin="round"/>
<path d="M23.2509 56.3707L22.1571 45.9813C22.1198 45.674 22.1441 45.3624 22.2284 45.0647C22.3127 44.7669 22.4554 44.4888 22.6483 44.2468C22.8411 44.0047 23.0801 43.8034 23.3515 43.6546C23.6229 43.5058 23.9211 43.4124 24.2289 43.38C24.5367 43.3476 24.8479 43.3768 25.1443 43.4658C25.4407 43.5548 25.7164 43.7019 25.9554 43.8985C26.1945 44.0951 26.392 44.3373 26.5365 44.611C26.681 44.8847 26.7696 45.1844 26.7971 45.4926L27.6653 53.7365" stroke="#121212" stroke-linecap="round" stroke-linejoin="round"/>
<path d="M18.6006 56.769L17.3257 44.6621C17.286 44.3537 17.3084 44.0405 17.3916 43.7409C17.4747 43.4413 17.6168 43.1613 17.8097 42.9174C18.0025 42.6735 18.2422 42.4706 18.5145 42.3207C18.7869 42.1707 19.0865 42.0766 19.3957 42.0441C19.7049 42.0115 20.0175 42.0411 20.3151 42.131C20.6128 42.221 20.8894 42.3695 21.1288 42.5679C21.3683 42.7663 21.5656 43.0105 21.7093 43.2862C21.853 43.5619 21.9402 43.8636 21.9657 44.1735L23.2498 56.3699" stroke="#121212" stroke-linecap="round" stroke-linejoin="round"/>
<path d="M13.9596 57.2583L12.9132 47.3207C12.8811 47.016 12.9094 46.7079 12.9963 46.4141C13.0833 46.1202 13.2273 45.8464 13.4201 45.6083C13.6129 45.3701 13.8507 45.1722 14.1199 45.026C14.3892 44.8797 14.6847 44.788 14.9894 44.7559C15.6018 44.7062 16.2098 44.8941 16.6873 45.2806C17.1649 45.6672 17.4753 46.2228 17.5542 46.8321L18.6006 56.7697" stroke="#121212" stroke-linecap="round" stroke-linejoin="round"/>
<path d="M14.0038 57.6801L13.1986 50.0321C13.1209 49.4275 12.8097 48.8772 12.3315 48.4991C11.8533 48.121 11.2461 47.9451 10.6398 48.0089C10.0336 48.0728 9.47636 48.3714 9.08742 48.8408C8.69847 49.3102 8.50868 49.9132 8.55864 50.5208L12.7186 90.0152" stroke="#121212" stroke-linecap="round" stroke-linejoin="round"/>
<path d="M26.8189 61.9043L24.5869 62.1392C23.2442 62.2806 22.0127 62.9496 21.1632 63.999C20.3138 65.0484 19.9159 66.3923 20.0573 67.735L20.2349 69.4227" stroke="#121212" stroke-linecap="round" stroke-linejoin="round"/>
<path d="M27.6023 86.5173L25.417 73.4636L31.0029 66.5631C31.2832 66.2166 31.4925 65.8183 31.6188 65.3909C31.7451 64.9635 31.7859 64.5154 31.7389 64.0722L30.8544 55.6591C30.7767 55.0544 30.4655 54.5042 29.9873 54.1261C29.5091 53.748 28.9019 53.572 28.2956 53.6359C27.6894 53.6997 27.1322 53.9983 26.7432 54.4677C26.3543 54.9372 26.1645 55.5402 26.2144 56.1477L26.8208 61.9077" stroke="#121212" stroke-linecap="round" stroke-linejoin="round"/>
<path d="M72.8462 55.5735L73.6462 45.1575C73.6775 44.8479 73.6466 44.5353 73.5552 44.2379C73.4639 43.9405 73.314 43.6644 73.1143 43.4258C72.9147 43.1871 72.6693 42.9909 72.3927 42.8485C72.1161 42.7061 71.8138 42.6205 71.5036 42.5967C71.1934 42.5729 70.8815 42.6113 70.5864 42.7098C70.2913 42.8083 70.0189 42.9648 69.7851 43.1701C69.5514 43.3755 69.3611 43.6255 69.2254 43.9054C69.0897 44.1854 69.0114 44.4897 68.995 44.8004L68.3589 53.0656" stroke="#121212" stroke-linecap="round" stroke-linejoin="round"/>
<path d="M77.506 55.8397L78.4398 43.7018C78.4633 43.3963 78.4264 43.0891 78.3312 42.7979C78.236 42.5066 78.0844 42.237 77.885 42.0043C77.6856 41.7717 77.4423 41.5806 77.1691 41.4419C76.8958 41.3033 76.5979 41.2198 76.2924 41.1963C75.9869 41.1728 75.6798 41.2097 75.3885 41.3049C75.0973 41.4001 74.8276 41.5517 74.595 41.7511C74.3623 41.9505 74.1712 42.1938 74.0326 42.467C73.894 42.7403 73.8105 43.0382 73.787 43.3437L72.8462 55.5715" stroke="#121212" stroke-linecap="round" stroke-linejoin="round"/>
<path d="M82.159 56.1984L82.927 46.2352C82.9744 45.6182 82.7748 45.0076 82.372 44.5378C81.9693 44.068 81.3964 43.7774 80.7795 43.7299C80.166 43.6974 79.5635 43.9023 79.097 44.3021C78.6305 44.7019 78.3357 45.2659 78.2739 45.8771L77.5059 55.8403" stroke="#121212" stroke-linecap="round" stroke-linejoin="round"/>
<path d="M82.1265 56.6212L82.7166 48.9531C82.7401 48.6476 82.8235 48.3497 82.9621 48.0764C83.1008 47.8032 83.2919 47.5599 83.5245 47.3605C83.7572 47.1611 84.0268 47.0095 84.3181 46.9143C84.6093 46.8191 84.9165 46.7822 85.222 46.8057C85.5275 46.8292 85.8254 46.9127 86.0986 47.0513C86.3719 47.1899 86.6152 47.381 86.8146 47.6137C87.014 47.8463 87.1656 48.116 87.2608 48.4072C87.356 48.6985 87.3929 49.0056 87.3693 49.3112L84.2477 89.8808" stroke="#121212" stroke-linecap="round" stroke-linejoin="round"/>
<path d="M69.4351 61.2051L71.6728 61.3772C72.3394 61.4285 72.9893 61.6106 73.5855 61.913C74.1817 62.2155 74.7125 62.6324 75.1475 63.14C75.5826 63.6476 75.9134 64.2359 76.1211 64.8714C76.3288 65.5068 76.4092 66.1769 76.3579 66.8435L76.2277 68.5356" stroke="#121212" stroke-linecap="round" stroke-linejoin="round"/>
<path d="M69.2502 86.5065L71.1616 72.7209L65.384 65.9801C65.0938 65.6418 64.8732 65.2495 64.7347 64.8259C64.5963 64.4022 64.5427 63.9554 64.577 63.511L65.2259 55.0761C65.2734 54.4591 65.564 53.8863 66.0339 53.4835C66.5038 53.0808 67.1144 52.8813 67.7314 52.9288C68.3484 52.9762 68.9212 53.2669 69.3239 53.7367C69.7266 54.2066 69.9262 54.8172 69.8787 55.4342L69.4346 61.208" stroke="#121212" stroke-linecap="round" stroke-linejoin="round"/>
<path fill-rule="evenodd" clip-rule="evenodd" d="M32.6718 13.7825C32.6112 13.6454 32.5081 13.5314 32.3777 13.4575C32.2474 13.3835 32.0967 13.3534 31.948 13.3716L25.6318 14.0836L22.962 8.41447C22.9019 8.27642 22.7979 8.16207 22.6662 8.08922C22.5344 8.01636 22.3823 7.98907 22.2334 8.01159C22.0848 8.029 21.9457 8.09373 21.8366 8.19624C21.7276 8.29875 21.6545 8.4336 21.628 8.58087L20.4417 14.6814L14.0539 15.433C13.9054 15.4515 13.7665 15.5161 13.6568 15.6177C13.547 15.7193 13.4719 15.8528 13.4421 15.9993C13.4123 16.1459 13.4292 16.2981 13.4905 16.4346C13.5518 16.571 13.6544 16.6847 13.7838 16.7598L19.2126 19.8993L17.9707 26.3684C17.9402 26.5155 17.9576 26.6685 18.0203 26.805C18.083 26.9415 18.1877 27.0544 18.3192 27.1271C18.4494 27.2019 18.5999 27.2336 18.7492 27.2177C18.8958 27.2 19.033 27.1365 19.1412 27.0362L23.9819 22.6884L29.6318 25.826C29.7608 25.9014 29.9109 25.9328 30.0593 25.9155C30.2078 25.8982 30.3466 25.8331 30.4548 25.73C30.5662 25.6294 30.6426 25.4959 30.6728 25.3489C30.7029 25.2018 30.6853 25.049 30.6225 24.9127L27.9393 18.8935L32.5118 14.603C32.6224 14.5011 32.6976 14.3666 32.7264 14.219C32.7552 14.0714 32.736 13.9184 32.6718 13.7825Z" fill="#B3B3B3"/>
<path fill-rule="evenodd" clip-rule="evenodd" d="M80.6629 12.9977C80.6523 12.8942 80.6087 12.7968 80.5385 12.7199C80.4683 12.643 80.3753 12.5908 80.2731 12.5709L75.9467 11.6838L75.4008 7.36382C75.3907 7.25971 75.3465 7.16183 75.2751 7.0854C75.2037 7.00896 75.1091 6.95823 75.0059 6.9411C74.904 6.92066 74.7982 6.93354 74.7041 6.97786C74.6101 7.02217 74.5328 7.09556 74.4837 7.18718L72.3886 10.9632L68.0046 10.0867C67.9026 10.0669 67.7968 10.0796 67.7024 10.1232C67.608 10.1667 67.5296 10.2388 67.4784 10.3293C67.4272 10.4197 67.4057 10.524 67.417 10.6274C67.4283 10.7307 67.4717 10.828 67.5413 10.9053L70.4533 14.1465L68.2421 18.1552C68.2043 18.2232 68.1831 18.2992 68.18 18.377C68.177 18.4547 68.1922 18.5321 68.2245 18.6029C68.2567 18.6738 68.3052 18.736 68.3658 18.7847C68.4265 18.8335 68.4978 18.8673 68.5739 18.8835C68.6746 18.9036 68.779 18.8911 68.8721 18.848L73.0056 17.0137L76.0645 20.3021C76.1336 20.3795 76.2259 20.4325 76.3277 20.4531C76.4295 20.4736 76.5352 20.4606 76.6289 20.416C76.7245 20.3737 76.8041 20.302 76.8559 20.2112C76.9077 20.1204 76.9291 20.0155 76.9169 19.9117L76.4376 15.3593L80.3806 13.5065C80.4758 13.4629 80.5545 13.39 80.6053 13.2985C80.6561 13.207 80.6763 13.1016 80.6629 12.9977Z" fill="#103F54"/>
<path fill-rule="evenodd" clip-rule="evenodd" d="M92.2664 31.5117C92.2605 31.4538 92.2361 31.3993 92.1969 31.3563C92.1576 31.3133 92.1056 31.2841 92.0485 31.273L89.6289 30.7767L89.3236 28.361C89.3181 28.3027 89.2934 28.248 89.2535 28.2052C89.2135 28.1624 89.1606 28.1341 89.1028 28.1245C89.0458 28.113 88.9866 28.1201 88.934 28.1449C88.8813 28.1697 88.8381 28.2108 88.8107 28.2621L87.6392 30.3741L85.188 29.8842C85.1309 29.8732 85.0719 29.8803 85.0191 29.9047C84.9664 29.929 84.9226 29.9693 84.894 30.0199C84.8653 30.0704 84.8533 30.1287 84.8595 30.1864C84.8658 30.2442 84.89 30.2985 84.9288 30.3418L86.5576 32.1546L85.3211 34.3965C85.2919 34.4469 85.2795 34.5054 85.2857 34.5633C85.2918 34.6212 85.3163 34.6757 85.3555 34.7188C85.3947 34.7619 85.4466 34.7915 85.5037 34.8031C85.5608 34.8148 85.6201 34.808 85.6731 34.7837L87.9848 33.7597L89.6952 35.5988C89.7338 35.6422 89.7854 35.672 89.8424 35.6835C89.8994 35.695 89.9585 35.6878 90.011 35.6628C90.0642 35.639 90.1085 35.5988 90.1373 35.548C90.166 35.4973 90.1779 35.4387 90.171 35.3808L89.9028 32.834L92.108 31.7978C92.1616 31.7734 92.2059 31.7324 92.2344 31.6809C92.2629 31.6294 92.2741 31.5701 92.2664 31.5117Z" fill="#B3B3B3"/>
<path fill-rule="evenodd" clip-rule="evenodd" d="M13.4949 28.569C13.4516 28.5063 13.3894 28.4591 13.3173 28.4345C13.2452 28.4099 13.1671 28.4092 13.0945 28.4324L10.0075 29.3866L8.13646 26.8081C8.09343 26.7448 8.03068 26.6975 7.95798 26.6736C7.88529 26.6497 7.80673 26.6505 7.73454 26.6759C7.66193 26.6987 7.59857 26.7442 7.5538 26.8057C7.50903 26.8673 7.48523 26.9416 7.4859 27.0177L7.47182 30.1757L4.35182 31.1578C4.27946 31.1812 4.21625 31.2266 4.17109 31.2878C4.12594 31.3489 4.10112 31.4227 4.10013 31.4988C4.09914 31.5748 4.12203 31.6492 4.16558 31.7115C4.20913 31.7738 4.27113 31.8209 4.34286 31.8461L7.35086 32.8996L7.3435 36.249C7.34336 36.3059 7.35654 36.3621 7.38199 36.413C7.40745 36.464 7.44447 36.5082 7.49009 36.5423C7.53571 36.5763 7.58868 36.5992 7.64474 36.6092C7.7008 36.6191 7.7584 36.6157 7.81294 36.5994C7.88459 36.5769 7.94716 36.532 7.9915 36.4714L9.99694 33.8397L13.1198 34.8724C13.1914 34.8975 13.2692 34.8989 13.3417 34.8762C13.4141 34.8536 13.4773 34.8081 13.5217 34.7466C13.5679 34.6858 13.5935 34.6119 13.5946 34.5355C13.5958 34.4592 13.5725 34.3845 13.5281 34.3223L11.6174 31.5703L13.4942 28.994C13.5395 28.9324 13.564 28.858 13.5642 28.7816C13.5643 28.7052 13.54 28.6307 13.4949 28.569Z" fill="#103F54"/>
</svg>
