<svg width="96" height="96" viewBox="0 0 96 96" fill="none" xmlns="http://www.w3.org/2000/svg">
<path d="M39.6335 45.2533C40.31 46.1864 40.0012 47.2831 39.8723 48.3656C39.799 48.9797 39.7331 49.7096 39.6726 50.5205L60.4067 50.2059C60.2239 48.2402 59.7228 46.1381 60.2271 44.2075C60.5081 43.1317 61.4604 42.3835 62.0547 41.4847C62.5074 40.7966 62.8968 40.0689 63.2182 39.3106C62.2774 39.2264 61.3276 39.2146 60.382 39.2072C51.8131 39.1218 43.2412 39.037 34.6758 39.2853C35.5009 40.7246 36.4932 42.0615 37.6319 43.268C38.2719 43.9551 39.0787 44.4882 39.6335 45.2533Z" fill="#CECECE"/>
<path d="M19.4411 28.8009C18.8744 26.9964 18.5973 25.0985 18.2549 23.2457C17.924 21.456 17.1442 19.4515 17.308 17.6227C17.334 17.1858 17.4642 16.7615 17.6878 16.3852C18.6683 14.8492 21.133 15.5756 21.4606 17.2451C21.2366 16.1059 20.652 14.6598 21.3717 13.5824C21.6076 13.2376 21.9395 12.9695 22.3261 12.8112C22.7128 12.6529 23.1374 12.6113 23.5474 12.6916C23.9574 12.772 24.3349 12.9707 24.6332 13.2632C24.9316 13.5557 25.1377 13.9292 25.2261 14.3376C24.9323 12.8422 24.2142 10.4403 26.2664 9.8102C26.7609 9.67261 27.2881 9.71404 27.7551 9.9272C28.222 10.1404 28.5987 10.5116 28.8187 10.9753C29.3307 12.0272 29.3816 13.4166 29.6065 14.5628C29.2888 12.9443 31.0622 11.4195 32.5954 12.2297C33.1905 12.5978 33.617 13.1853 33.7826 13.8652C34.1658 15.1815 34.4683 16.52 34.6882 17.8732C34.7957 18.487 34.9003 19.1011 34.9976 19.7168C35.0936 20.32 35.1595 20.9289 35.2638 21.5305C35.2853 21.6544 35.331 22.0188 35.5317 21.8444C35.7368 21.6175 35.9048 21.3596 36.0296 21.0803C36.3406 20.537 36.6937 20.019 37.0856 19.5308" stroke="#103F54" stroke-linecap="round" stroke-linejoin="round"/>
<path d="M29.6064 14.5625C29.7786 15.6572 29.9738 16.7119 30.2186 17.6806" stroke="#103F54" stroke-linecap="round" stroke-linejoin="round"/>
<path d="M25.2261 14.3379C25.4568 15.8368 25.7221 17.2432 26.043 18.4995" stroke="#103F54" stroke-linecap="round" stroke-linejoin="round"/>
<path d="M21.4604 17.2461C21.5323 17.9285 21.6647 18.6031 21.856 19.2621" stroke="#103F54" stroke-linecap="round" stroke-linejoin="round"/>
<path d="M79.6859 26.1533C79.8779 25.185 80.0379 24.2093 80.2171 23.2458C80.548 21.456 81.3278 19.4516 81.164 17.6228C81.138 17.1859 81.0078 16.7615 80.7842 16.3853C79.8037 14.8493 77.3391 15.5757 77.0114 17.2452C77.2354 16.106 77.82 14.6599 77.1003 13.5824C76.8644 13.2376 76.5325 12.9695 76.1459 12.8112C75.7592 12.6529 75.3346 12.6114 74.9246 12.6917C74.5146 12.772 74.1371 12.9707 73.8388 13.2633C73.5404 13.5558 73.3343 13.9293 73.2459 14.3376C73.5394 12.8423 74.2578 10.4404 72.2056 9.81027C71.7112 9.67265 71.184 9.71396 70.717 9.92693C70.2501 10.1399 69.8732 10.5109 69.653 10.9744C69.1426 12.0263 69.0904 13.4157 68.8654 14.562C69.1832 12.9434 67.4098 11.4186 65.8767 12.2288C65.2815 12.5969 64.855 13.1844 64.6895 13.8644" stroke="#103F54" stroke-linecap="round" stroke-linejoin="round"/>
<path d="M68.8641 14.5625C68.692 15.6572 68.4968 16.7119 68.252 17.6806" stroke="#103F54" stroke-linecap="round" stroke-linejoin="round"/>
<path d="M73.2457 14.3379C73.0149 15.8368 72.7497 17.2432 72.4287 18.4995" stroke="#103F54" stroke-linecap="round" stroke-linejoin="round"/>
<path d="M77.0112 17.2461C76.9394 17.9285 76.807 18.6031 76.6157 19.2621" stroke="#103F54" stroke-linecap="round" stroke-linejoin="round"/>
<path d="M64.2751 64.6004C64.5631 63.2903 64.87 61.9844 65.2066 60.6862C65.6268 59.066 66.4108 57.3732 66.2789 55.6721C66.2092 54.769 65.5535 54.0311 65.2069 53.2254C64.6371 51.8592 64.3201 50.4008 64.2716 48.9214C64.1397 45.898 64.8639 42.913 65.4284 39.9649C65.8501 37.7626 65.8524 35.113 66.8591 33.0874C67.0849 32.5976 67.4244 32.1689 67.8495 31.8369C69.6629 30.5121 72.1663 32.4503 71.7948 34.5134C72.0482 33.1054 72.0245 31.1854 73.3327 30.2695C75.2105 28.9575 77.8265 30.5962 77.4185 32.8615C77.7509 31.0145 78.0021 27.9364 80.6399 28.1319C81.269 28.1953 81.8556 28.4787 82.2962 28.9322C82.7368 29.3858 83.0031 29.9803 83.0482 30.611C83.1631 32.0468 82.6002 33.665 82.3458 35.0814C82.7058 33.0814 85.4239 32.1255 86.821 33.7415C87.3781 34.3863 87.5161 35.3006 87.4511 36.1505C87.3013 37.8332 87.0487 39.5053 86.6949 41.1572C86.5436 41.9098 86.3887 42.6612 86.2245 43.4116C86.0645 44.1476 85.8677 44.8756 85.718 45.6126C85.686 45.7646 85.5762 46.2033 85.8847 46.0926C86.2217 45.9246 86.53 45.7045 86.7983 45.4404C87.3992 44.9564 88.037 44.5201 88.7058 44.1354C89.2469 43.8029 89.8804 43.6525 90.5132 43.7063C91.0488 43.7719 91.5597 43.9698 91.9996 44.2823C92.4036 44.5603 92.7284 44.9384 92.9422 45.3797C93.1561 45.8209 93.2516 46.3102 93.2194 46.7994C93.1455 47.6986 91.7397 49.7476 91.2482 50.5038C90.0578 52.3358 88.9218 53.6442 87.5362 55.339C86.6525 56.4048 85.6424 57.3591 84.5282 58.1809C83.9164 58.6394 83.1932 58.9505 82.638 59.4839C81.9609 60.1342 82.0501 61.0583 81.998 61.9447C81.6373 68.0039 78.1858 86.7153 78.1548 87.1403" stroke="#103F54" stroke-linecap="round" stroke-linejoin="round"/>
<path d="M82.3461 35.0801C82.0533 36.4138 81.8053 37.7118 81.6523 38.9329" stroke="#103F54" stroke-linecap="round" stroke-linejoin="round"/>
<path d="M77.4184 32.8613C77.0124 34.6853 76.6872 36.4184 76.4927 38.004" stroke="#103F54" stroke-linecap="round" stroke-linejoin="round"/>
<path d="M71.7947 34.5137C71.5719 35.3284 71.4219 36.1613 71.3467 37.0026" stroke="#103F54" stroke-linecap="round" stroke-linejoin="round"/>
<path d="M33.2833 66.3135C32.7879 64.4255 32.2593 62.5487 31.6695 60.6891C31.1636 59.0939 30.2903 57.4453 30.3313 55.7394C30.353 54.8341 30.9681 54.0623 31.2714 53.2389C31.7677 51.8444 32.0062 50.3713 31.9754 48.8914C31.946 45.8652 31.0638 42.9234 30.3434 40.0092C29.8049 37.8332 29.6612 35.1868 28.5479 33.2178C28.2963 32.7407 27.9342 32.3307 27.4919 32.022C25.6103 30.7957 23.2142 32.8645 23.6948 34.9048C23.3668 33.5125 23.2881 31.5925 21.9329 30.749C19.9879 29.5384 17.4631 31.3151 17.9911 33.556C17.5607 31.7288 17.1457 28.668 14.5223 29.004C13.8976 29.101 13.3271 29.4154 12.9115 29.8918C12.4958 30.3682 12.2617 30.9761 12.2503 31.6082C12.2119 33.0482 12.8599 34.6341 13.1898 36.0344C12.7239 34.0568 9.95785 33.2469 8.64969 34.9356C8.12745 35.6076 8.03881 36.5295 8.14889 37.3743C8.38804 39.0469 8.72937 40.7033 9.17097 42.3343C9.36297 43.078 9.55689 43.8204 9.76073 44.5605C9.96073 45.286 10.1953 46.0034 10.3838 46.7314C10.4228 46.8815 10.5569 47.3138 10.243 47.22C9.8974 47.0696 9.57773 46.8656 9.29577 46.6156C8.67003 46.1641 8.00988 45.7623 7.32137 45.414C6.76334 45.1108 6.12283 44.9945 5.49385 45.0821C4.96242 45.1761 4.46285 45.4013 4.04041 45.7372C3.6518 46.0362 3.34758 46.4311 3.15758 46.8831C2.96757 47.3352 2.89831 47.8288 2.95657 48.3157C3.07817 49.2095 4.59113 51.1807 5.12233 51.9096C6.40873 53.6754 7.61321 54.9215 9.08585 56.54C10.0251 57.5572 11.0846 58.4563 12.241 59.2175C12.8766 59.6428 13.617 59.9148 14.1982 60.4178C14.9092 61.0309 14.8702 61.9586 14.969 62.8408C15.6522 68.8725 20.0967 87.3733 20.1505 87.7957" stroke="#103F54" stroke-linecap="round" stroke-linejoin="round"/>
<path d="M13.1899 36.0332C13.5531 37.3497 13.8703 38.6326 14.0882 39.8438" stroke="#103F54" stroke-linecap="round" stroke-linejoin="round"/>
<path d="M17.9917 33.5566C18.4944 35.3563 18.9117 37.0696 19.1904 38.6424" stroke="#103F54" stroke-linecap="round" stroke-linejoin="round"/>
<path d="M23.6953 34.9043C23.9614 35.7059 24.1555 36.5297 24.2755 37.3657" stroke="#103F54" stroke-linecap="round" stroke-linejoin="round"/>
<path d="M38.1982 28.0158C38.0084 27.8126 37.8411 27.5803 37.6628 27.3796C37.0421 26.6642 36.3664 25.9984 35.642 25.3883C35.0606 24.869 34.3282 24.5496 33.5521 24.4769C32.891 24.44 32.2312 24.5683 31.6321 24.8503C31.0836 25.0983 30.609 25.4845 30.2547 25.9711C29.9004 26.4577 29.6786 27.0279 29.611 27.626C29.6011 27.7529 29.6034 27.8804 29.618 28.0068C29.6963 28.0171 29.774 28.026 29.851 28.0337C30.4433 28.0951 33.7527 28.0731 38.1982 28.0158Z" fill="#CECECE"/>
<path d="M64.4382 16.7956C64.2723 16.1547 63.9553 15.5629 63.5138 15.0696C62.291 13.7876 60.4328 14.0728 59.2594 15.122C59.1038 16.314 58.9758 17.8244 58.8798 18.9419C58.8139 19.7156 58.7618 20.3272 58.7198 20.6267C58.7012 20.7604 58.6349 20.8829 58.5332 20.9717C58.4314 21.0604 58.301 21.1094 58.1659 21.1096C58.1398 21.1095 58.1137 21.1077 58.0878 21.1041C58.015 21.094 57.9449 21.0696 57.8814 21.0323C57.818 20.9951 57.7625 20.9457 57.7182 20.887C57.6739 20.8283 57.6415 20.7615 57.623 20.6903C57.6045 20.6191 57.6002 20.545 57.6104 20.4721C57.6482 20.202 57.7016 19.5742 57.7637 18.8468C57.8642 17.667 58.0021 16.051 58.1701 14.8097C58.1783 14.7542 58.1948 14.7003 58.219 14.6497C58.1653 13.6504 57.9387 12.6939 57.2302 11.9816C56.6523 11.4111 55.881 11.0787 55.0695 11.0504C54.2579 11.0222 53.4653 11.3 52.8491 11.8289C52.8794 13.8893 52.7697 15.9494 52.5208 17.995C52.4248 18.9656 52.3333 19.883 52.2891 20.6715C52.2811 20.8143 52.2188 20.9486 52.1149 21.0469C52.011 21.1452 51.8734 21.2 51.7304 21.2001C51.7199 21.2001 51.7093 21.2001 51.6984 21.2001C51.625 21.196 51.5531 21.1775 51.4868 21.1456C51.4205 21.1137 51.3612 21.0691 51.3122 21.0143C51.2632 20.9594 51.2255 20.8955 51.2012 20.8261C51.1769 20.7567 51.1666 20.6831 51.1707 20.6097C51.2162 19.7963 51.3083 18.868 51.4059 17.8852C51.5451 16.4824 51.6939 14.9505 51.7368 13.4852C51.7672 11.1918 51.7688 8.11372 48.867 7.81068C48.0931 7.75058 47.3229 7.96556 46.6919 8.41771C46.061 8.86987 45.6099 9.5302 45.4181 10.2824C45.214 11.1775 45.1361 12.0968 45.1867 13.0136C45.2024 13.0523 45.2138 13.0927 45.2206 13.1339C45.5784 15.3873 45.9586 18.7137 45.8536 20.6712C45.8459 20.8142 45.7837 20.9488 45.6798 21.0474C45.5759 21.146 45.4381 21.201 45.2949 21.2011C45.2846 21.2011 45.2747 21.2011 45.2645 21.2011C45.1911 21.1972 45.1191 21.1789 45.0528 21.1472C44.9864 21.1155 44.927 21.071 44.8778 21.0163C44.8287 20.9617 44.7908 20.8978 44.7663 20.8285C44.7418 20.7592 44.7313 20.6857 44.7352 20.6123C44.8277 18.8872 44.5006 15.7768 44.1307 13.4152C43.0488 12.4974 41.4219 12.2401 40.179 13.2449C39.3656 13.9025 39.0002 14.9771 38.8939 16.0177C38.7092 18.0833 38.6511 20.1582 38.7198 22.2308C38.739 23.1729 38.7624 24.115 38.7976 25.0568C38.8322 25.98 38.9106 26.9032 38.931 27.826C38.931 27.8712 38.9349 27.9364 38.9339 28.0075C47.2142 27.8968 58.9506 27.674 64.7083 27.6027C64.6952 26.8718 64.6802 26.1422 64.6722 25.4158C64.6398 22.6635 65.2139 19.4619 64.4382 16.7956Z" fill="#CECECE"/>
<path d="M62.288 66.8458C62.2894 65.5528 62.2874 64.2598 62.2819 62.9668L36.79 63.2455C36.4864 71.106 36.295 79.2414 36.5827 86.5994H61.8518C61.9059 86.0874 62.0515 82.8958 62.0944 82.3818C62.5222 77.2618 62.2816 71.9818 62.288 66.8458Z" fill="#103F54" stroke="#103F54" stroke-miterlimit="10"/>
<path d="M62.2819 62.9653C62.2651 59.0793 62.2154 55.1937 62.1328 51.3087C62.1458 51.0875 62.1048 50.8664 62.0134 50.6645C61.7754 50.2377 61.1901 50.1925 60.7014 50.1999L39.2934 50.5247C38.6611 50.5343 37.9366 50.5887 37.5568 51.0937C37.3412 51.453 37.2378 51.8685 37.2598 52.2869C37.1014 55.8437 36.9286 59.5228 36.7827 63.2441L62.2819 62.9653Z" stroke="#103F54" stroke-miterlimit="10"/>
<path d="M55.2145 57.0209C55.19 57.3772 55.2653 57.7333 55.4318 58.0493C55.7518 58.5751 56.4199 58.7633 57.0318 58.826C57.4173 58.8924 57.8138 58.8429 58.1713 58.6839C58.5056 58.4737 58.7641 58.1621 58.9089 57.7946C59.5255 56.4769 59.2337 54.6458 57.5879 54.2721C56.0721 53.9277 55.2276 55.7985 55.2145 57.0209Z" stroke="#103F54" stroke-miterlimit="10"/>
<path d="M38.8918 29.3448C38.6215 29.2608 38.3363 29.2359 38.0556 29.2718C37.7749 29.3078 37.5052 29.4037 37.2649 29.5531C37.1549 29.6279 37.0742 29.7383 37.0364 29.8658C36.9375 30.2549 36.8886 30.6568 36.7874 31.0456C36.6319 31.6447 36.4514 32.237 36.2777 32.8312C36.0918 33.4674 35.9014 34.1023 35.6946 34.7986C35.653 34.6904 35.6342 34.6479 35.6198 34.6037C35.1169 33.0427 34.6142 31.4817 34.1116 29.9205C34.0736 29.7262 33.9604 29.5549 33.7965 29.4438C33.6327 29.3327 33.4316 29.2909 33.237 29.3275C32.7562 29.3679 32.2762 29.422 31.797 29.4901C31.3766 29.5493 31.3446 29.6011 31.4838 30.0079C32.0079 31.5372 32.5368 33.0649 33.0703 34.5909C33.3298 35.3343 33.6505 36.0607 33.8518 36.8194C34.0591 37.6011 34.1993 37.8693 35.1103 37.8306C35.6486 37.8079 36.189 37.8335 36.7279 37.8194C36.8456 37.822 36.9602 37.7819 37.0506 37.7067C37.1411 37.6314 37.2013 37.5259 37.2201 37.4098C37.558 36.2021 37.9167 34.9999 38.2662 33.7938C38.6196 32.5739 38.9716 31.3537 39.3222 30.133C39.3505 30.0531 39.3617 29.9682 39.3549 29.8837C39.3482 29.7992 39.3237 29.7171 39.2831 29.6427C39.2425 29.5683 39.1867 29.5033 39.1192 29.452C39.0518 29.4007 38.9743 29.3642 38.8918 29.3448Z" fill="#CECECE"/>
<path d="M45.4261 29.4336C44.6664 29.1507 43.8482 29.0616 43.0453 29.1744C41.6463 29.3101 40.6351 29.9971 40.1183 31.3462C39.742 32.3293 39.7554 33.3453 39.8002 34.3721C39.8466 35.2281 40.1174 36.0568 40.5855 36.775C40.8427 37.1976 41.2264 37.5285 41.6821 37.7209C42.6076 38.0912 43.618 38.1956 44.5996 38.0224C46.0469 37.8201 47.0217 37.0304 47.3781 35.6051C47.5012 34.9829 47.5805 34.3529 47.6156 33.7197C47.5545 33.0064 47.5484 32.511 47.4636 32.0297C47.3851 31.4551 47.155 30.9116 46.797 30.4554C46.4389 29.9991 45.9657 29.6464 45.4261 29.4336ZM45.1417 35.0672C45.1224 35.2946 45.0309 35.5098 44.8805 35.6814C44.7301 35.853 44.5287 35.9719 44.3058 36.0208C43.9406 36.0707 43.5699 36.0636 43.2069 35.9997C43.0186 35.9754 42.8474 35.8778 42.7307 35.7279C42.614 35.5781 42.5613 35.3882 42.5839 35.1997C42.5743 34.7645 42.5817 34.3293 42.5817 33.8941L42.5279 33.8905C42.5797 33.2505 42.6009 32.6041 42.6924 31.9705C42.7749 31.4003 43.1004 31.1581 43.6812 31.1507C43.9063 31.1413 44.1317 31.162 44.3513 31.2125C44.6042 31.2664 44.8289 31.4105 44.9834 31.618C45.138 31.8254 45.2117 32.082 45.1909 32.3398C45.2012 33.2473 45.1765 34.1581 45.1417 35.0672Z" fill="#CECECE"/>
<path d="M63.5025 36.5884C63.4811 36.3884 63.5025 36.1039 63.3851 36.0143C63.1862 35.9285 62.9669 35.9014 62.7531 35.9362C61.4965 35.9452 60.2395 35.9631 58.9829 35.9781C58.9051 35.9781 58.8273 35.9781 58.7208 35.9781V34.9001L62.0411 34.7305C62.0174 34.2137 62.0065 33.7545 61.9713 33.2972C61.9499 33.0162 61.8277 32.917 61.5361 32.9343C61.0056 32.9663 60.476 33.0156 59.9461 33.0578L58.6853 33.158V31.6274L63.0417 31.4738C63.0709 31.0329 63.0833 30.6069 63.1313 30.1852C63.1851 29.7141 62.9915 29.4732 62.516 29.4978C62.0977 29.5193 61.6814 29.5775 61.2632 29.5938C59.622 29.6629 57.9806 29.7252 56.339 29.7807C56.0875 29.789 56.0251 29.8901 56.0334 30.1173C56.0683 31.0975 56.107 32.078 56.1189 33.0585C56.1368 34.5407 56.1313 36.0229 56.14 37.5065C56.1425 37.9225 56.2072 37.9967 56.6331 38.0069C56.9784 38.0149 57.3246 37.9769 57.6705 37.9647C58.355 37.941 59.0392 37.9173 59.7237 37.9007C60.4081 37.8841 61.091 37.861 61.7742 37.8668C62.1358 37.8697 62.4961 37.9333 62.8577 37.9577C63.2885 37.9868 63.5051 37.8325 63.5525 37.4034C63.5651 37.1307 63.5484 36.8575 63.5025 36.5884Z" fill="#CECECE"/>
<path d="M54.5564 29.2551C54.1545 29.2731 53.7564 29.3396 53.3532 29.3511C52.742 29.3707 52.1289 29.3438 51.5183 29.3694C50.5609 29.4094 49.605 29.4862 48.6476 29.5259C48.5517 29.517 48.4561 29.5457 48.381 29.6059C48.3059 29.6662 48.2572 29.7532 48.245 29.8487C48.1226 30.3848 48.1268 30.9421 48.2575 31.4763C48.286 31.5979 48.3535 31.6388 48.4796 31.6363C48.9551 31.6295 49.4306 31.6331 49.9062 31.6343C49.9913 31.6343 50.0764 31.6417 50.1942 31.6471C50.2175 32.5652 50.246 33.458 50.2614 34.3508C50.2786 35.3649 50.2796 36.3793 50.2972 37.3934C50.2924 37.4668 50.303 37.5404 50.3283 37.6094C50.3536 37.6785 50.393 37.7415 50.4441 37.7944C50.4951 37.8474 50.5567 37.8891 50.6248 37.9168C50.6929 37.9446 50.7661 37.9578 50.8396 37.9556C51.4428 37.9614 52.0473 37.9438 52.6498 37.9089C52.9564 37.8913 53.0252 37.7681 53.0159 37.4609C52.986 36.4796 52.9596 35.4973 52.9366 34.514C52.9202 33.8375 52.911 33.1607 52.8934 32.4846C52.886 32.2027 52.8665 31.9214 52.8495 31.6401C52.8412 31.5028 52.8882 31.4315 53.038 31.4279C53.5529 31.4164 54.0678 31.3959 54.5823 31.3812C54.7247 31.3774 54.8674 31.3812 55.0182 31.3812C55.054 30.8353 55.094 30.33 55.1183 29.8244C55.1362 29.4196 54.9612 29.2369 54.5564 29.2551Z" fill="#CECECE"/>
</svg>
