<svg width="96" height="96" viewBox="0 0 96 96" fill="none" xmlns="http://www.w3.org/2000/svg">
<path d="M57.4937 58.9694H52.9388C52.0529 58.9694 51.2033 58.6175 50.5769 57.9911C49.9505 57.3647 49.5986 56.5151 49.5986 55.6292C49.5986 54.7434 49.9505 53.8938 50.5769 53.2674C51.2033 52.641 52.0529 52.2891 52.9388 52.2891H57.4937" stroke="#121212" stroke-linecap="round" stroke-linejoin="round"/>
<path d="M79.3564 58.447H78.686L69.6991 49.4602C68.7879 48.549 67.5521 48.0371 66.2636 48.0371H60.8338C59.9479 48.0371 59.0984 48.389 58.472 49.0154C57.8456 49.6418 57.4937 50.4914 57.4937 51.3773V58.0576C57.4937 58.9435 57.8456 59.793 58.472 60.4194C59.0984 61.0458 59.9479 61.3977 60.8338 61.3977C61.7197 61.3977 62.5693 61.0458 63.1957 60.4194C63.8221 59.793 64.174 58.9435 64.174 58.0576V56.5395C64.174 56.2173 64.3019 55.9082 64.5296 55.6802C64.7573 55.4522 65.0661 55.3239 65.3884 55.3235H66.6044" stroke="#121212" stroke-linecap="round" stroke-linejoin="round"/>
<path d="M61.6001 61.3095C61.7551 61.8103 61.7904 62.3405 61.7032 62.8574C61.6159 63.3743 61.4085 63.8636 61.0977 64.2857C60.7869 64.7078 60.3813 65.0511 59.9136 65.2879C59.4459 65.5247 58.9291 65.6484 58.4049 65.6491H51.7239C50.8381 65.6491 49.9885 65.2972 49.3621 64.6708C48.7357 64.0444 48.3838 63.1948 48.3838 62.3089C48.3838 61.423 48.7357 60.5735 49.3621 59.9471C49.9885 59.3207 50.8381 58.9687 51.7239 58.9688H57.4936" stroke="#121212" stroke-linecap="round" stroke-linejoin="round"/>
<path d="M61.7442 68.9906C61.7442 69.8764 61.3923 70.726 60.7659 71.3524C60.1395 71.9788 59.2899 72.3307 58.404 72.3307H54.1531C53.2673 72.3307 52.4177 71.9788 51.7913 71.3524C51.1649 70.726 50.813 69.8764 50.813 68.9906C50.8343 68.1114 51.193 67.2741 51.8149 66.6523C52.4367 66.0304 53.274 65.6717 54.1531 65.6504H58.404C59.2899 65.6504 60.1395 66.0023 60.7659 66.6287C61.3923 67.2551 61.7442 68.1047 61.7442 68.9906V68.9906Z" stroke="#121212" stroke-linecap="round" stroke-linejoin="round"/>
<path d="M62.3516 75.6702C62.3516 76.5561 61.9997 77.4057 61.3733 78.0321C60.7469 78.6585 59.8973 79.0104 59.0114 79.0104H55.9749C55.0891 79.0104 54.2395 78.6585 53.6131 78.0321C52.9867 77.4057 52.6348 76.5561 52.6348 75.6702C52.6348 74.7844 52.9867 73.9348 53.6131 73.3084C54.2395 72.682 55.0891 72.3301 55.9749 72.3301H59.0114C59.8973 72.3301 60.7469 72.682 61.3733 73.3084C61.9997 73.9348 62.3516 74.7844 62.3516 75.6702V75.6702Z" stroke="#121212" stroke-linecap="round" stroke-linejoin="round"/>
<path d="M64.1738 58.3613V61.3978C64.1738 62.3548 64.3622 63.3025 64.7285 64.1867C65.0947 65.0708 65.6314 65.8742 66.3081 66.551C66.9848 67.2277 67.7882 67.7645 68.6724 68.1307C69.5565 68.497 70.5042 68.6855 71.4612 68.6855H73.8906" stroke="#121212" stroke-linecap="round" stroke-linejoin="round"/>
<path d="M59.3154 79.0098H79.3564" stroke="#121212" stroke-linecap="round" stroke-linejoin="round"/>
<path d="M83.6072 80.2239H79.356V57.1465H83.6072" stroke="#121212" stroke-linecap="round" stroke-linejoin="round"/>
<path d="M88.4657 83.2617H86.0365C85.7175 83.2618 85.4016 83.199 85.1069 83.0769C84.8122 82.9548 84.5444 82.7759 84.3188 82.5503C84.0932 82.3248 83.9143 82.057 83.7922 81.7622C83.6702 81.4675 83.6074 81.1516 83.6074 80.8326V56.5408C83.6074 56.2217 83.6702 55.9058 83.7922 55.6111C83.9143 55.3163 84.0932 55.0485 84.3188 54.8229C84.5443 54.5973 84.8121 54.4184 85.1069 54.2963C85.4016 54.1742 85.7175 54.1113 86.0365 54.1113H88.4657" fill="#B0B0B0"/>
<path d="M36.8452 58.9694H41.4001C42.286 58.9694 43.1355 58.6175 43.7619 57.9911C44.3883 57.3647 44.7403 56.5151 44.7403 55.6292C44.7403 54.7434 44.3883 53.8938 43.7619 53.2674C43.1355 52.641 42.286 52.2891 41.4001 52.2891H36.8452" stroke="#121212" stroke-linecap="round" stroke-linejoin="round"/>
<path d="M14.9824 58.447H15.6528L24.64 49.4602C25.5512 48.549 26.787 48.0371 28.0755 48.0371H33.504C34.3899 48.0371 35.2395 48.389 35.8659 49.0154C36.4923 49.6418 36.8442 50.4914 36.8442 51.3773V58.0576C36.8442 58.9435 36.4923 59.793 35.8659 60.4194C35.2395 61.0458 34.3899 61.3977 33.504 61.3977C32.6182 61.3977 31.7686 61.0458 31.1422 60.4194C30.5158 59.793 30.1639 58.9435 30.1639 58.0576V56.5395C30.1639 56.217 30.0357 55.9077 29.8077 55.6797C29.5797 55.4516 29.2704 55.3235 28.9479 55.3235H27.7319" stroke="#121212" stroke-linecap="round" stroke-linejoin="round"/>
<path d="M32.739 61.3095C32.5841 61.8103 32.5488 62.3405 32.6361 62.8574C32.7234 63.3743 32.9308 63.8634 33.2416 64.2856C33.5524 64.7077 33.958 65.051 34.4256 65.2878C34.8933 65.5246 35.41 65.6484 35.9342 65.6491H42.6146C43.5004 65.6491 44.35 65.2972 44.9764 64.6708C45.6028 64.0444 45.9547 63.1948 45.9547 62.3089C45.9547 61.423 45.6028 60.5735 44.9764 59.9471C44.35 59.3207 43.5004 58.9687 42.6146 58.9688H36.8453" stroke="#121212" stroke-linecap="round" stroke-linejoin="round"/>
<path d="M32.5938 68.9906C32.5938 69.8764 32.9458 70.7259 33.5722 71.3523C34.1985 71.9787 35.0481 72.3306 35.9339 72.3307H40.1851C41.071 72.3307 41.9206 71.9788 42.547 71.3524C43.1734 70.726 43.5253 69.8764 43.5253 68.9906C43.504 68.1114 43.1453 67.2741 42.5234 66.6523C41.9016 66.0304 41.0643 65.6717 40.1851 65.6504H35.9339C35.048 65.6504 34.1985 66.0023 33.5721 66.6287C32.9457 67.2551 32.5938 68.1047 32.5938 68.9906V68.9906Z" stroke="#121212" stroke-linecap="round" stroke-linejoin="round"/>
<path d="M31.9868 75.6702C31.9868 76.109 32.0732 76.5434 32.2412 76.9487C32.4091 77.354 32.6552 77.7223 32.9655 78.0324C33.2757 78.3426 33.6441 78.5886 34.0494 78.7564C34.4548 78.9242 34.8892 79.0105 35.3279 79.0104H38.3644C39.2503 79.0104 40.0999 78.6585 40.7263 78.0321C41.3527 77.4057 41.7046 76.5561 41.7046 75.6702C41.7046 74.7844 41.3527 73.9348 40.7263 73.3084C40.0999 72.682 39.2503 72.3301 38.3644 72.3301H35.3279C34.8892 72.33 34.4548 72.4163 34.0494 72.5841C33.6441 72.7519 33.2757 72.9979 32.9655 73.308C32.6552 73.6182 32.4091 73.9865 32.2412 74.3918C32.0732 74.7971 31.9868 75.2315 31.9868 75.6702V75.6702Z" stroke="#121212" stroke-linecap="round" stroke-linejoin="round"/>
<path d="M30.165 58.3613V61.3978C30.165 63.3306 29.3972 65.1843 28.0305 66.551C26.6638 67.9177 24.8102 68.6855 22.8774 68.6855H20.4482" stroke="#121212" stroke-linecap="round" stroke-linejoin="round"/>
<path d="M35.0234 79.0098H14.9824" stroke="#121212" stroke-linecap="round" stroke-linejoin="round"/>
<path d="M10.731 80.2239H14.9822V57.1465H10.731" stroke="#121212" stroke-linecap="round" stroke-linejoin="round"/>
<path d="M5.26562 83.2617H8.3021C8.62111 83.2618 8.93701 83.199 9.23174 83.0769C9.52647 82.9548 9.79427 82.7759 10.0198 82.5503C10.2454 82.3248 10.4243 82.057 10.5464 81.7622C10.6685 81.4675 10.7313 81.1516 10.7312 80.8326V56.5408C10.7313 56.2217 10.6685 55.9058 10.5464 55.6111C10.4244 55.3163 10.2454 55.0485 10.0199 54.8229C9.7943 54.5973 9.5265 54.4184 9.23176 54.2963C8.93703 54.1742 8.62113 54.1113 8.3021 54.1113H5.26562" fill="#103F54"/>
<path d="M5.26562 83.2617H8.30211C8.62111 83.2618 8.93701 83.199 9.23174 83.0769C9.52647 82.9548 9.79427 82.7759 10.0198 82.5503C10.2454 82.3248 10.4243 82.057 10.5464 81.7622C10.6685 81.4675 10.7313 81.1516 10.7312 80.8326V56.5408C10.7313 56.2217 10.6685 55.9058 10.5464 55.6111C10.4244 55.3163 10.2454 55.0485 10.0199 54.8229C9.7943 54.5973 9.5265 54.4184 9.23176 54.2963C8.93703 54.1742 8.62113 54.1113 8.30211 54.1113H5.26562" stroke="#103F54" stroke-miterlimit="10"/>
<path d="M12.3682 46.5345L36.5698 35.65C37.3214 35.312 38.1378 35.1423 38.9618 35.1529C39.7858 35.1634 40.5976 35.3539 41.3403 35.7111L52.0958 40.8836C52.7828 41.2139 53.5295 41.402 54.291 41.4365C55.0525 41.471 55.8132 41.3512 56.5272 41.0842C57.2412 40.8173 57.8939 40.4088 58.4461 39.8833C58.9983 39.3577 59.4385 38.726 59.7403 38.026L73.7976 5.41797" stroke="#B0B0B0" stroke-linecap="round" stroke-linejoin="round"/>
<path d="M12.3682 38.2699L36.4181 27.043C37.3679 26.5996 38.4223 26.4289 39.4636 26.5499C40.5048 26.671 41.4919 27.079 42.3147 27.7284L48.3131 32.4644C49.1521 33.1269 50.1617 33.538 51.2247 33.65C52.2878 33.762 53.3609 33.5704 54.3195 33.0974L87.8482 16.5547" stroke="white" stroke-linecap="round" stroke-linejoin="round"/>
<path d="M12.3682 38.2699L36.4181 27.043C37.3679 26.5996 38.4223 26.4289 39.4636 26.5499C40.5048 26.671 41.4919 27.079 42.3147 27.7284L48.3131 32.4644C49.1521 33.1269 50.1617 33.538 51.2247 33.65C52.2878 33.762 53.3609 33.5704 54.3195 33.0974L87.8482 16.5547" stroke="#103F54" stroke-linecap="round" stroke-linejoin="round"/>
<path d="M68.7046 6.84261L73.7804 4.81445L75.8083 9.89029" stroke="#B0B0B0" stroke-linecap="round" stroke-linejoin="round"/>
<path d="M82.7412 15.0078L87.9643 16.6184L86.354 21.8414" stroke="#103F54" stroke-linecap="round" stroke-linejoin="round"/>
</svg>
