<svg width="8" height="14" viewBox="0 0 8 14" fill="none" xmlns="http://www.w3.org/2000/svg">
<path fill-rule="evenodd" clip-rule="evenodd" d="M4 1.00012C3.60603 1.00012 3.21593 1.07771 2.85195 1.22848C2.48797 1.37924 2.15726 1.60022 1.87868 1.8788C1.6001 2.15737 1.37913 2.48809 1.22836 2.85207C1.0776 3.21604 1 3.60615 1 4.00012C1 4.39408 1.0776 4.78419 1.22836 5.14817C1.37913 5.51214 1.6001 5.84286 1.87868 6.12144C2.15726 6.40001 2.48797 6.62099 2.85195 6.77176C3.21593 6.92252 3.60603 7.00012 4 7.00012C4.79565 7.00012 5.55871 6.68405 6.12132 6.12144C6.68393 5.55883 7 4.79577 7 4.00012C7 3.20447 6.68393 2.44141 6.12132 1.8788C5.55871 1.31619 4.79565 1.00012 4 1.00012ZM7.04591e-07 4.00012C7.24929e-05 3.23034 0.222257 2.47694 0.639895 1.83031C1.05753 1.18368 1.65288 0.671289 2.3545 0.354624C3.05613 0.0379591 3.83422 -0.0695301 4.59542 0.0450543C5.35662 0.159639 6.06858 0.491429 6.64589 1.00061C7.2232 1.5098 7.64132 2.17475 7.85009 2.91567C8.05885 3.6566 8.0494 4.44202 7.82285 5.1777C7.5963 5.91339 7.16229 6.56807 6.57289 7.06321C5.98349 7.55835 5.26374 7.8729 4.5 7.96912V13.5001C4.5 13.6327 4.44732 13.7599 4.35355 13.8537C4.25979 13.9474 4.13261 14.0001 4 14.0001C3.86739 14.0001 3.74022 13.9474 3.64645 13.8537C3.55268 13.7599 3.5 13.6327 3.5 13.5001V7.97012C2.53297 7.84828 1.64369 7.37755 0.999215 6.64635C0.354742 5.91515 -0.000577511 4.9738 7.04591e-07 3.99912V4.00012Z" fill="#E8E8E8"/>
</svg>
