<svg width="16" height="16" viewBox="0 0 16 16" fill="none" xmlns="http://www.w3.org/2000/svg">
<path fill-rule="evenodd" clip-rule="evenodd" d="M1.88492 0.511147C2.0599 0.336436 2.27 0.200905 2.50132 0.113537C2.73263 0.0261686 2.97988 -0.0110424 3.22666 0.00436978C3.47345 0.019782 3.71414 0.0874655 3.93278 0.202935C4.15143 0.318404 4.34304 0.479023 4.49492 0.674147L6.28992 2.98015C6.61892 3.40315 6.73492 3.95415 6.60492 4.47415L6.05792 6.66415C6.02964 6.77758 6.03117 6.89639 6.06236 7.00906C6.09355 7.12172 6.15334 7.22441 6.23592 7.30715L8.69292 9.76415C8.77576 9.8469 8.87862 9.90679 8.99147 9.93798C9.10433 9.96918 9.22334 9.97061 9.33692 9.94215L11.5259 9.39515C11.7825 9.33099 12.0504 9.326 12.3092 9.38057C12.568 9.43514 12.8111 9.54784 13.0199 9.71015L15.3259 11.5041C16.1549 12.1491 16.2309 13.3741 15.4889 14.1151L14.4549 15.1491C13.7149 15.8891 12.6089 16.2141 11.5779 15.8511C8.93911 14.9227 6.54319 13.412 4.56792 11.4311C2.58721 9.45616 1.07653 7.06061 0.147922 4.42215C-0.214078 3.39215 0.110922 2.28515 0.850922 1.54515L1.88492 0.511147Z" fill="#E8E8E8"/>
</svg>
